name rise45.9887peak57.8056fall74.9286.mot
datacolumns 19
datarows 35
range 16.47493700000000 16.53161000000000
endheader
time	ground_force1_vx	ground_force1_vy	ground_force1_vz	ground_force1_px	ground_force1_py	ground_force1_pz	ground_force2_vx	ground_force2_vy	ground_force2_vz	ground_force2_px	ground_force2_py	ground_force2_pz	ground_torque1_x	ground_torque1_y	ground_torque1_z	ground_torque2_x	ground_torque2_y	ground_torque2_z	
16.47493700000000	-40.44229500000000	767.45524899999998	56.89213800000000	0.09605000000000	0.00000000000000	0.13288100000000	-9.41933700000000	39.06225100000000	8.26291800000000	0.31783800000000	0.00000000000000	-0.05923400000000	0.00000000000000	23.56924200000000	0.00000000000000	0.00000000000000	4.59002500000000	0.00000000000000	
16.47660800000000	-40.69518100000000	765.63435400000003	56.63321400000000	0.09553400000000	0.00000000000000	0.13281700000000	-10.40212000000000	45.50880400000000	9.32219500000000	0.32335300000000	0.00000000000000	-0.05959500000000	0.00000000000000	23.49445000000000	0.00000000000000	0.00000000000000	5.26282700000000	0.00000000000000	
16.47827000000000	-40.95464000000000	763.73696099999995	56.35444700000000	0.09502700000000	0.00000000000000	0.13274900000000	-11.22857400000000	51.96749700000000	10.29646200000000	0.32833600000000	0.00000000000000	-0.05994700000000	0.00000000000000	23.41865600000000	0.00000000000000	0.00000000000000	5.90294200000000	0.00000000000000	
16.47994200000000	-41.22129600000000	761.76147300000002	56.05571700000000	0.09452900000000	0.00000000000000	0.13267700000000	-11.87422900000000	58.35082600000000	11.16419300000000	0.33285200000000	0.00000000000000	-0.06029100000000	0.00000000000000	23.34199300000000	0.00000000000000	0.00000000000000	6.49618000000000	0.00000000000000	
16.48161000000000	-41.49575400000000	759.70624299999997	55.73693400000000	0.09403800000000	0.00000000000000	0.13260000000000	-12.32457200000000	64.59489700000000	11.91099800000000	0.33695200000000	0.00000000000000	-0.06062900000000	0.00000000000000	23.26458900000000	0.00000000000000	0.00000000000000	7.03216800000000	0.00000000000000	
16.48327400000000	-41.77859400000000	757.56957999999997	55.39803400000000	0.09355400000000	0.00000000000000	0.13251900000000	-12.57492100000000	70.66115300000000	12.52973600000000	0.34068400000000	0.00000000000000	-0.06096200000000	0.00000000000000	23.18657000000000	0.00000000000000	0.00000000000000	7.50458500000000	0.00000000000000	
16.48493900000000	-42.07037100000000	755.34974699999998	55.03898800000000	0.09307600000000	0.00000000000000	0.13243400000000	-12.62951500000000	76.53573200000000	13.02001900000000	0.34408500000000	0.00000000000000	-0.06129000000000	0.00000000000000	23.10806200000000	0.00000000000000	0.00000000000000	7.91103500000000	0.00000000000000	
16.48660500000000	-42.37160200000000	753.04496200000006	54.65979400000000	0.09260400000000	0.00000000000000	0.13234400000000	-12.50002700000000	82.22689099999999	13.38724100000000	0.34718800000000	0.00000000000000	-0.06161500000000	0.00000000000000	23.02918400000000	0.00000000000000	0.00000000000000	8.25260200000000	0.00000000000000	
16.48827700000000	-42.68277200000000	750.65339700000004	54.26048100000000	0.09213600000000	0.00000000000000	0.13225100000000	-12.20371400000000	87.76105200000001	13.64130400000000	0.35002200000000	0.00000000000000	-0.06193700000000	0.00000000000000	22.95005400000000	0.00000000000000	0.00000000000000	8.53320100000000	0.00000000000000	
16.48994000000000	-43.00432100000000	748.17318399999999	53.84110900000000	0.09167200000000	0.00000000000000	0.13215300000000	-11.76143300000000	93.17803800000000	13.79518700000000	0.35261200000000	0.00000000000000	-0.06225700000000	0.00000000000000	22.87078400000000	0.00000000000000	0.00000000000000	8.75880300000000	0.00000000000000	
16.49161000000000	-43.33664700000000	745.60241299999996	53.40176800000000	0.09121100000000	0.00000000000000	0.13205200000000	-11.19569500000000	98.52602100000000	13.86351700000000	0.35498000000000	0.00000000000000	-0.06257500000000	0.00000000000000	22.79148100000000	0.00000000000000	0.00000000000000	8.93662500000000	0.00000000000000	
16.49327300000000	-43.68009400000000	742.93913499999996	52.94257900000000	0.09075200000000	0.00000000000000	0.13194600000000	-10.52891800000000	103.85666500000001	13.86124900000000	0.35714500000000	0.00000000000000	-0.06289100000000	0.00000000000000	22.71224500000000	0.00000000000000	0.00000000000000	9.07436300000000	0.00000000000000	
16.49493900000000	-44.03495600000000	740.18136500000003	52.46369500000000	0.09029400000000	0.00000000000000	0.13183600000000	-9.78198200000000	109.22079200000000	13.80254000000000	0.35912500000000	0.00000000000000	-0.06320500000000	0.00000000000000	22.63317100000000	0.00000000000000	0.00000000000000	9.17951400000000	0.00000000000000	
16.49660300000000	-44.40146700000000	737.32708700000001	51.96529800000000	0.08983700000000	0.00000000000000	0.13172200000000	-8.97314300000000	114.66484699999999	13.69988700000000	0.36093300000000	0.00000000000000	-0.06351800000000	0.00000000000000	22.55434600000000	0.00000000000000	0.00000000000000	9.25883900000000	0.00000000000000	
16.49827100000000	-44.77979900000000	734.37425199999996	51.44760100000000	0.08937900000000	0.00000000000000	0.13160400000000	-8.11733500000000	120.22826600000000	13.56352900000000	0.36258400000000	0.00000000000000	-0.06383000000000	0.00000000000000	22.47584900000000	0.00000000000000	0.00000000000000	9.31797100000000	0.00000000000000	
16.49993800000000	-45.17005800000000	731.32078799999999	50.91084800000000	0.08892000000000	0.00000000000000	0.13148300000000	-7.22584200000000	125.94182100000000	13.40112800000000	0.36409000000000	0.00000000000000	-0.06414100000000	0.00000000000000	22.39775000000000	0.00000000000000	0.00000000000000	9.36119200000000	0.00000000000000	
16.50162800000000	-45.57228200000000	728.16459999999995	50.35531500000000	0.08845900000000	0.00000000000000	0.13135800000000	-6.30629200000000	131.82686200000001	13.21769900000000	0.36546200000000	0.00000000000000	-0.06445000000000	0.00000000000000	22.32011100000000	0.00000000000000	0.00000000000000	9.39134200000000	0.00000000000000	
16.50327400000000	-45.98643600000000	724.90357500000005	49.78130500000000	0.08799600000000	0.00000000000000	0.13122800000000	-5.36292300000000	137.89537000000001	13.01574300000000	0.36671000000000	0.00000000000000	-0.06475700000000	0.00000000000000	22.24298200000000	0.00000000000000	0.00000000000000	9.40986600000000	0.00000000000000	
16.50493800000000	-46.41240800000000	721.53558999999996	49.18915400000000	0.08752900000000	0.00000000000000	0.13109600000000	-4.39705600000000	144.15066100000001	12.79555300000000	0.36784300000000	0.00000000000000	-0.06506400000000	0.00000000000000	22.16640300000000	0.00000000000000	0.00000000000000	9.41695500000000	0.00000000000000	
16.50660500000000	-46.85000700000000	718.05851099999995	48.57922600000000	0.08705800000000	0.00000000000000	0.13096000000000	-3.40768900000000	150.58856599999999	12.55561800000000	0.36886800000000	0.00000000000000	-0.06536900000000	0.00000000000000	22.09040300000000	0.00000000000000	0.00000000000000	9.41176100000000	0.00000000000000	
16.50827400000000	-47.29896300000000	714.47020599999996	47.95191300000000	0.08658200000000	0.00000000000000	0.13082000000000	-2.39215000000000	157.19891999999999	12.29308900000000	0.36979500000000	0.00000000000000	-0.06567200000000	0.00000000000000	22.01499700000000	0.00000000000000	0.00000000000000	9.39265100000000	0.00000000000000	
16.50994000000000	-47.75891900000000	710.76854200000002	47.30763900000000	0.08610100000000	0.00000000000000	0.13067700000000	-1.34675900000000	163.96718100000001	12.00426500000000	0.37062900000000	0.00000000000000	-0.06597300000000	0.00000000000000	21.94019100000000	0.00000000000000	0.00000000000000	9.35747500000000	0.00000000000000	
16.51160700000000	-48.22943500000000	706.95140100000003	46.64685400000000	0.08561400000000	0.00000000000000	0.13053000000000	-0.26743400000000	170.87604200000001	11.68504400000000	0.37137600000000	0.00000000000000	-0.06627300000000	0.00000000000000	21.86597500000000	0.00000000000000	0.00000000000000	9.30382800000000	0.00000000000000	
16.51327700000000	-48.70998300000000	703.01667699999996	45.97003500000000	0.08512000000000	0.00000000000000	0.13038100000000	0.84978600000000	177.90691699999999	11.33133200000000	0.37204300000000	0.00000000000000	-0.06657000000000	0.00000000000000	21.79232500000000	0.00000000000000	0.00000000000000	9.22928100000000	0.00000000000000	
16.51493500000000	-49.19994500000000	698.96228900000006	45.27768800000000	0.08462000000000	0.00000000000000	0.13022800000000	2.00831900000000	185.04121900000001	10.93936800000000	0.37263400000000	0.00000000000000	-0.06686600000000	0.00000000000000	21.71920400000000	0.00000000000000	0.00000000000000	9.13158000000000	0.00000000000000	
16.51660900000000	-49.69861400000000	694.78618500000005	44.57034400000000	0.08411200000000	0.00000000000000	0.13007200000000	3.21074400000000	192.26136700000001	10.50597500000000	0.37315500000000	0.00000000000000	-0.06715900000000	0.00000000000000	21.64655900000000	0.00000000000000	0.00000000000000	9.00878800000000	0.00000000000000	
16.51828800000000	-50.20519600000000	690.48635100000001	43.84856200000000	0.08359600000000	0.00000000000000	0.12991300000000	4.45861600000000	199.55151900000001	10.02872300000000	0.37360900000000	0.00000000000000	-0.06744900000000	0.00000000000000	21.57432400000000	0.00000000000000	0.00000000000000	8.85939000000000	0.00000000000000	
16.51994100000000	-50.71880300000000	686.06081900000004	43.11292100000000	0.08307300000000	0.00000000000000	0.12975200000000	5.75239000000000	206.89801299999999	9.50601200000000	0.37400200000000	0.00000000000000	-0.06773700000000	0.00000000000000	21.50241500000000	0.00000000000000	0.00000000000000	8.68234400000000	0.00000000000000	
16.52160400000000	-51.23845900000000	681.50767499999995	42.36403000000000	0.08254100000000	0.00000000000000	0.12958800000000	7.09143800000000	214.28955400000001	8.93708100000000	0.37433600000000	0.00000000000000	-0.06802200000000	0.00000000000000	21.43073300000000	0.00000000000000	0.00000000000000	8.47709800000000	0.00000000000000	
16.52327500000000	-51.76310100000000	676.82506699999999	41.60251600000000	0.08200000000000	0.00000000000000	0.12942100000000	8.47413900000000	221.71718300000001	8.32196500000000	0.37461600000000	0.00000000000000	-0.06830500000000	0.00000000000000	21.35916300000000	0.00000000000000	0.00000000000000	8.24356000000000	0.00000000000000	
16.52494300000000	-52.29157500000000	672.01121799999999	40.82903200000000	0.08145100000000	0.00000000000000	0.12925100000000	9.89802200000000	229.17406800000001	7.66140600000000	0.37484400000000	0.00000000000000	-0.06858400000000	0.00000000000000	21.28757400000000	0.00000000000000	0.00000000000000	7.98206200000000	0.00000000000000	
16.52660800000000	-52.82264500000000	667.06443500000000	40.04424900000000	0.08089300000000	0.00000000000000	0.12907900000000	11.35993900000000	236.65518499999999	6.95673800000000	0.37502300000000	0.00000000000000	-0.06886000000000	0.00000000000000	21.21581900000000	0.00000000000000	0.00000000000000	7.69328500000000	0.00000000000000	
16.52827000000000	-53.35498900000000	661.98311799999999	39.24886200000000	0.08032500000000	0.00000000000000	0.12890500000000	12.85624900000000	244.15691799999999	6.20975800000000	0.37515600000000	0.00000000000000	-0.06913200000000	0.00000000000000	21.14373300000000	0.00000000000000	0.00000000000000	7.37819600000000	0.00000000000000	
16.52994200000000	-53.88720500000000	656.76577799999995	38.44358100000000	0.07974900000000	0.00000000000000	0.12872900000000	14.38300500000000	251.67663899999999	5.42259100000000	0.37524600000000	0.00000000000000	-0.06940100000000	0.00000000000000	21.07113600000000	0.00000000000000	0.00000000000000	7.03796600000000	0.00000000000000	
16.53161000000000	-54.41781100000000	651.41104099999995	37.62913700000000	0.07916300000000	0.00000000000000	0.12855000000000	15.93611900000000	259.21230100000002	4.59757300000000	0.37529500000000	0.00000000000000	-0.06966600000000	0.00000000000000	20.99783100000000	0.00000000000000	0.00000000000000	6.67390500000000	0.00000000000000	
